{"title":"Outcast 2010 DVDrip English Klam","uid":6469064,"size":1280404872,"categoryP":"video","categoryS":"movies","magnet":"?xt=urn:btih:dcace21c6d117da8fb50738fe9a3b5dcbd672b34&amp;dn=Outcast+2010+DVDrip+English+Klam&amp;tr=udp%3A%2F%2Ftracker.openbittorrent.com%3A80&amp;tr=udp%3A%2F%2Fopen.demonii.com%3A1337&amp;tr=udp%3A%2F%2Ftracker.coppersurfer.tk%3A6969&amp;tr=udp%3A%2F%2Fexodus.desync.com%3A6969","seeders":0,"leechers":0,"uploader":"Klambake","files":-1,"time":1308012962,"description":"With: James Nesbitt, Kate Dickie and James Cosmo\n\nPetronella is een Schotse zigeunervrouw en heeft een relatie met Fergal, een mysterieuze Ierse reiziger. Als hun verdoemde relatie bekend wordt...\n\nIt tells the tale of Petronella (a Scottish/Romany girl) and Fergal (her mysterious Irish traveller boyfriend)...\n\n------------------ Dutch Friends ------------------\n\nYou can find my Friends at: http://www.Film-Test.nl \n                    \n------ They got my dutchs subs ---- and more ------\n\nGeneral:\n\nComplete name                    : Outcast\\Outcast.avi\nFormat                           : AVI\nFormat/Info                      : Audio Video Interleave\nFile size                        : 1.19 GiB\nDuration                         : 1h 33mn\nOverall bit rate                 : 1 817 Kbps\n\nVideo:\n\nFormat                           : MPEG-4 Visual\nFormat profile                   : Simple@L3\nFormat settings, BVOP            : No\nFormat settings, QPel            : No\nFormat settings, GMC             : No warppoints\nFormat settings, Matrix          : Default (H.263)\nCodec ID                         : XVID\nCodec ID/Hint                    : XviD\nDuration                         : 1h 33mn\nBit rate                         : 1 358 Kbps\nWidth                            : 704 pixels\nHeight                           : 396 pixels\nDisplay aspect ratio             : 16:9\nFrame rate                       : 25.000 fps\nColor space                      : YUV\nChroma subsampling               : 4:2:0\nBit depth                        : 8 bits\nScan type                        : Progressive\nBits/(Pixel*Frame)               : 0.195\nStream size                      : 911 MiB (75%)\nWriting library                  : XviD 1.1.2 (UTC 2006-11-01)\n\nAudio:\n\nFormat                           : AC-3\nFormat/Info                      : Audio Coding 3\nMode extension                   : CM (complete main)\nCodec ID                         : 2000\nDuration                         : 1h 33mn\nBit rate mode                    : Constant\nBit rate                         : 448 Kbps\nChannel(s)                       : 6 channels\nChannel positions                : Front: L C R, Side: L R, LFE\nSampling rate                    : 48.0 KHz\nBit depth                        : 16 bits\nStream size                      : 300 MiB (25%)\nAlignment                        : Aligned on interleaves\nInterleave, duration             : 32 ms (0.80 video frame)\nInterleave, preload duration     : 384 ms\n\n","torrent":{"xt":"urn:btih:dcace21c6d117da8fb50738fe9a3b5dcbd672b34","amp;dn":"Outcast+2010+DVDrip+English+Klam","amp;tr":["udp%3A%2F%2Ftracker.openbittorrent.com%3A80","udp%3A%2F%2Fopen.demonii.com%3A1337","udp%3A%2F%2Ftracker.coppersurfer.tk%3A6969","udp%3A%2F%2Fexodus.desync.com%3A6969"],"infoHash":"dcace21c6d117da8fb50738fe9a3b5dcbd672b34","infoHashBuffer":{"type":"Buffer","data":[220,172,226,28,109,17,125,168,251,80,115,143,233,163,181,220,189,103,43,52]},"announce":[],"urlList":[]}}